<svg xmlns="http://www.w3.org/2000/svg" xmlns:xlink="http://www.w3.org/1999/xlink" xmlns:lucid="lucid" width="3420" height="1320"><g transform="translate(-80 100.00000000000003)" lucid:page-tab-id="0_0"><path d="M100-14a6 6 0 0 1 6-6h228a6 6 0 0 1 6 6v68a6 6 0 0 1-6 6H106a6 6 0 0 1-6-6z" stroke="#000" stroke-opacity="0" stroke-width="2" fill="#fff" fill-opacity="0"/><use xlink:href="#a" transform="matrix(1,0,0,1,105,-15) translate(58.77777777777785 44.85416666666662)"/><path d="M342.96 20h329.1" stroke="#3a414a" stroke-width="6" fill="none"/><path d="M343.04 23h-3.07v-6h3.07z" stroke="#3a414a" stroke-width=".05" fill="#3a414a"/><path d="M689.33 20l-14.27 4.64v-9.28z" stroke="#3a414a" stroke-width="6" fill="#3a414a"/><path d="M700-54a6 6 0 0 1 6-6h228a6 6 0 0 1 6 6V94a6 6 0 0 1-6 6H706a6 6 0 0 1-6-6z" stroke="#3a414a" stroke-width="2" fill="#fff0f0"/><use xlink:href="#b" transform="matrix(1,0,0,1,705,-55) translate(39.03703703703707 81.13888888888889)"/><path d="M943.96 20h305.56a.47.47 0 0 0 .47-.47.47.47 0 0 1 .45-.46h281.6" stroke="#3a414a" stroke-width="6" fill="none"/><path d="M944.04 23h-3.08v-6h3.08z" stroke="#3a414a" stroke-width=".05" fill="#3a414a"/><path d="M1549.3 19.07l-14.26 4.63v-9.27z" stroke="#3a414a" stroke-width="6" fill="#3a414a"/><path d="M100 186a6 6 0 0 1 6-6h228a6 6 0 0 1 6 6v68a6 6 0 0 1-6 6H106a6 6 0 0 1-6-6z" stroke="#000" stroke-opacity="0" stroke-width="2" fill="#fff" fill-opacity="0"/><use xlink:href="#c" transform="matrix(1,0,0,1,105,185) translate(39.44444444444454 44.85416666666662)"/><path d="M342.96 220h329.1" stroke="#3a414a" stroke-width="6" fill="none"/><path d="M343.04 223h-3.07v-6h3.07z" stroke="#3a414a" stroke-width=".05" fill="#3a414a"/><path d="M689.33 220l-14.27 4.64v-9.28z" stroke="#3a414a" stroke-width="6" fill="#3a414a"/><path d="M700 146a6 6 0 0 1 6-6h228a6 6 0 0 1 6 6v148a6 6 0 0 1-6 6H706a6 6 0 0 1-6-6z" stroke="#3a414a" stroke-width="2" fill="#fff0f0"/><use xlink:href="#b" transform="matrix(1,0,0,1,705,145) translate(39.03703703703707 81.13888888888889)"/><path d="M943.96 220h75.88a.16.16 0 0 1 .16.16.16.16 0 0 0 .16.15h511.9" stroke="#3a414a" stroke-width="6" fill="none"/><path d="M944.04 223h-3.08v-6h3.08z" stroke="#3a414a" stroke-width=".05" fill="#3a414a"/><path d="M1549.34 220.3l-14.27 4.65v-9.27z" stroke="#3a414a" stroke-width="6" fill="#3a414a"/><path d="M120 705.25a6 6 0 0 1 6-6h228a6 6 0 0 1 6 6v68a6 6 0 0 1-6 6H126a6 6 0 0 1-6-6z" stroke="#000" stroke-opacity="0" stroke-width="2" fill="#fff" fill-opacity="0"/><use xlink:href="#d" transform="matrix(1,0,0,1,125,704.2490253875586) translate(45.44444444444453 44.85416666666662)"/><path d="M362.96 739.25h309.1" stroke="#3a414a" stroke-width="6" fill="none"/><path d="M363.04 742.25h-3.07v-6h3.07z" stroke="#3a414a" stroke-width=".05" fill="#3a414a"/><path d="M689.33 739.25l-14.27 4.63v-9.27z" stroke="#3a414a" stroke-width="6" fill="#3a414a"/><path d="M700 665.25a6 6 0 0 1 6-6h228a6 6 0 0 1 6 6v148a6 6 0 0 1-6 6H706a6 6 0 0 1-6-6z" stroke="#3a414a" stroke-width="2" fill="#fff0f0"/><use xlink:href="#b" transform="matrix(1,0,0,1,705,664.2490253875586) translate(39.03703703703707 81.13888888888889)"/><path d="M943.96 739.25H1244a6 6 0 0 0 6-6v-372a6 6 0 0 1 6-6h276.1" stroke="#e81313" stroke-width="6" fill="none"/><path d="M944.04 742.25h-3.08v-6h3.08z" stroke="#e81313" stroke-width=".05" fill="#e81313"/><path d="M1549.36 355.25l-14.27 4.64v-9.28z" stroke="#e81313" stroke-width="6" fill="#e81313"/><path d="M1560-74a6 6 0 0 1 6-6h148a6 6 0 0 1 6 6v488a6 6 0 0 1-6 6h-148a6 6 0 0 1-6-6z" stroke="#3a414a" stroke-width="2" fill="#fcfcca"/><use xlink:href="#e" transform="matrix(1,0,0,1,1572,-68.00000000000003) translate(15.283950617283978 225.70138888888889)"/><use xlink:href="#f" transform="matrix(1,0,0,1,1572,-68.00000000000003) translate(10.22839506172842 263.0347222222222)"/><path d="M382.96 1120H2114a6 6 0 0 0 6-6v-46.06" stroke="#008573" stroke-width="6" fill="none"/><path d="M383.04 1123h-3.07v-6h3.07z" stroke="#008573" stroke-width=".05" fill="#008573"/><path d="M2120 1050.67l4.64 14.27h-9.28z" stroke="#008573" stroke-width="6" fill="#008573"/><path d="M140 1087.67a6 6 0 0 1 6-6h228a6 6 0 0 1 6 6v64.66a6 6 0 0 1-6 6H146a6 6 0 0 1-6-6z" stroke="#000" stroke-opacity="0" stroke-width="2" fill="#fff" fill-opacity="0"/><use xlink:href="#g" transform="matrix(1,0,0,1,145,1086.666666666667) translate(48.481481481481566 44.76041666666662)"/><path d="M2040 886a6 6 0 0 1 6-6h148a6 6 0 0 1 6 6v148a6 6 0 0 1-6 6h-148a6 6 0 0 1-6-6z" stroke="#3a414a" stroke-width="2" fill="#e3fae3"/><use xlink:href="#h" transform="matrix(1,0,0,1,2045,885) translate(44.79629629629631 62.38888888888888)"/><use xlink:href="#i" transform="matrix(1,0,0,1,2045,885) translate(49.07407407407409 99.7222222222222)"/><path d="M2120 876.04v-48.1" stroke="#3a414a" stroke-width="6" fill="none"/><path d="M2123 879.04h-6v-3.08h6z" stroke="#3a414a" stroke-width=".05" fill="#3a414a"/><path d="M2120 810.67l4.64 14.27h-9.28z" stroke="#3a414a" stroke-width="6" fill="#3a414a"/><path d="M2040 646a6 6 0 0 1 6-6h148a6 6 0 0 1 6 6v148a6 6 0 0 1-6 6h-148a6 6 0 0 1-6-6z" stroke="#3a414a" stroke-width="2" fill="#e3fae3"/><use xlink:href="#h" transform="matrix(1,0,0,1,2045,645) translate(44.79629629629631 62.38888888888888)"/><use xlink:href="#j" transform="matrix(1,0,0,1,2045,645) translate(57.71604938271606 99.7222222222222)"/><path d="M2120 636.04v-48.1" stroke="#3a414a" stroke-width="6" fill="none"/><path d="M2123 639.04h-6v-3.08h6z" stroke="#3a414a" stroke-width=".05" fill="#3a414a"/><path d="M2120 570.67l4.64 14.27h-9.28z" stroke="#3a414a" stroke-width="6" fill="#3a414a"/><path d="M2040 406a6 6 0 0 1 6-6h148a6 6 0 0 1 6 6v148a6 6 0 0 1-6 6h-148a6 6 0 0 1-6-6z" stroke="#3a414a" stroke-width="2" fill="#e3fae3"/><use xlink:href="#k" transform="matrix(1,0,0,1,2045,405) translate(44.79629629629631 62.38888888888888)"/><use xlink:href="#j" transform="matrix(1,0,0,1,2045,405) translate(57.71604938271606 99.7222222222222)"/><path d="M2120 396.04v-48.1" stroke="#3a414a" stroke-width="6" fill="none"/><path d="M2123 399.04h-6v-3.08h6z" stroke="#3a414a" stroke-width=".05" fill="#3a414a"/><path d="M2120 330.67l4.64 14.27h-9.28z" stroke="#3a414a" stroke-width="6" fill="#3a414a"/><path d="M2040 166a6 6 0 0 1 6-6h148a6 6 0 0 1 6 6v148a6 6 0 0 1-6 6h-148a6 6 0 0 1-6-6z" stroke="#3a414a" stroke-width="2" fill="#e3fae3"/><use xlink:href="#k" transform="matrix(1,0,0,1,2045,165) translate(44.79629629629631 62.38888888888888)"/><use xlink:href="#l" transform="matrix(1,0,0,1,2045,165) translate(66.35802469135803 99.7222222222222)"/><path d="M2120 156.04v-48.1" stroke="#3a414a" stroke-width="6" fill="none"/><path d="M2123 159.04h-6v-3.08h6z" stroke="#3a414a" stroke-width=".05" fill="#3a414a"/><path d="M2120 90.67l4.64 14.27h-9.28z" stroke="#3a414a" stroke-width="6" fill="#3a414a"/><path d="M2040-74a6 6 0 0 1 6-6h148a6 6 0 0 1 6 6V74a6 6 0 0 1-6 6h-148a6 6 0 0 1-6-6z" stroke="#3a414a" stroke-width="2" fill="#e3fae3"/><use xlink:href="#k" transform="matrix(1,0,0,1,2045,-75) translate(44.79629629629631 62.38888888888888)"/><use xlink:href="#j" transform="matrix(1,0,0,1,2045,-75) translate(57.71604938271606 99.7222222222222)"/><path d="M2680 240h120v240h-120z" fill="none"/><path d="M2704 240v240l72-48V288z" stroke="#3a414a" stroke-width="2" fill="#fff"/><path d="M2776 360h24M2728 464v16m24-32v32M2704 279h-24M2704 333h-24M2704 387h-24M2704 441h-24" stroke="#3a414a" stroke-width="2" fill="none"/><path d="M2203.96 720H2474a6 6 0 0 0 6-6V447a6 6 0 0 1 6-6h167.03" stroke="#3a414a" stroke-width="6" fill="none"/><path d="M2204.04 723h-3.08v-6h3.08z" stroke="#3a414a" stroke-width=".05" fill="#3a414a"/><path d="M2670.3 441l-14.27 4.64v-9.28z" stroke="#3a414a" stroke-width="6" fill="#3a414a"/><path d="M2203.96 480H2394a6 6 0 0 0 6-6v-81a6 6 0 0 1 6-6h247.03" stroke="#3a414a" stroke-width="6" fill="none"/><path d="M2204.04 483h-3.08v-6h3.08z" stroke="#3a414a" stroke-width=".05" fill="#3a414a"/><path d="M2670.3 387l-14.27 4.64v-9.28z" stroke="#3a414a" stroke-width="6" fill="#3a414a"/><path d="M2203.96 240H2394a6 6 0 0 1 6 6v81a6 6 0 0 0 6 6h247.03" stroke="#3a414a" stroke-width="6" fill="none"/><path d="M2204.04 243h-3.08v-6h3.08z" stroke="#3a414a" stroke-width=".05" fill="#3a414a"/><path d="M2670.3 333l-14.27 4.64v-9.28z" stroke="#3a414a" stroke-width="6" fill="#3a414a"/><path d="M2203.96 0H2474a6 6 0 0 1 6 6v267a6 6 0 0 0 6 6h167.03" stroke="#3a414a" stroke-width="6" fill="none"/><path d="M2204.04 3h-3.08v-6h3.08z" stroke="#3a414a" stroke-width=".05" fill="#3a414a"/><path d="M2670.3 279l-14.27 4.64v-9.28z" stroke="#3a414a" stroke-width="6" fill="#3a414a"/><path d="M2118.3 1120h412.13M2115.3 1120" stroke="#008573" stroke-width="6" fill="none"/><path d="M2547.7 1120l-14.27 4.64v-9.28z" stroke="#008573" stroke-width="6" fill="#008573"/><path d="M2558.37 1046a6 6 0 0 1 6-6h388a6 6 0 0 1 6 6v148a6 6 0 0 1-6 6h-388a6 6 0 0 1-6-6z" stroke="#3a414a" stroke-width="2" fill="#fbf0ff"/><use xlink:href="#m" transform="matrix(1,0,0,1,2563.372672544942,1045) translate(149.06790123456793 62.38888888888888)"/><use xlink:href="#n" transform="matrix(1,0,0,1,2563.372672544942,1045) translate(151.0987654320988 99.7222222222222)"/><path d="M2727.56 1036.04V759.62a.1.1 0 0 1 .1-.1.1.1 0 0 0 .1-.1V506.98" stroke="#3a414a" stroke-width="6" fill="none"/><path d="M2730.56 1039.04h-6v-3.07h6z" stroke="#3a414a" stroke-width=".05" fill="#3a414a"/><path d="M2727.75 489.7l4.64 14.27h-9.28z" stroke="#3a414a" stroke-width="6" fill="#3a414a"/><path d="M2752 1037.72V506.97" stroke="#3a414a" stroke-width="6" fill="none"/><path d="M2753.32 1039.04h-6v-3.08h6z" stroke="#3a414a" stroke-width=".05" fill="#3a414a"/><path d="M2752 489.7l4.64 14.27h-9.28z" stroke="#3a414a" stroke-width="6" fill="#3a414a"/><path d="M2880 156a6 6 0 0 1 6-6h148a6 6 0 0 1 6 6v408a6 6 0 0 1-6 6h-148a6 6 0 0 1-6-6z" stroke="#3a414a" stroke-width="2" fill="#fff0f0"/><use xlink:href="#o" transform="matrix(1,0,0,1,2885,155) translate(66.35802469135803 172.23263888888889)"/><use xlink:href="#p" transform="matrix(1,0,0,1,2885,155) translate(12.820987654321016 209.5659722222222)"/><use xlink:href="#q" transform="matrix(1,0,0,1,2885,155) translate(16.320987654321016 246.89930555555551)"/><path d="M2801 360h59.53" stroke="#3a414a" stroke-width="2" fill="none"/><path d="M2801.03 361H2800v-2h1.03z" stroke="#3a414a" stroke-width=".05" fill="#3a414a"/><path d="M2875.8 360l-14.27 4.64v-9.28z" stroke="#3a414a" stroke-width="2" fill="#3a414a"/><path d="M2845.3 1036.02V864.78a.27.27 0 0 0-.27-.27.27.27 0 0 1-.27-.26V696a6 6 0 0 1 6-6h242.3" stroke="#3a414a" stroke-width="6" fill="none"/><path d="M2848.3 1039.02h-6v-3.08h6z" stroke="#3a414a" stroke-width=".05" fill="#3a414a"/><path d="M3110.33 690l-14.27 4.64v-9.28z" stroke="#3a414a" stroke-width="6" fill="#3a414a"/><path d="M2895.63 1036V914.94a.42.42 0 0 0-.42-.42.42.42 0 0 1-.42-.42V796a6 6 0 0 1 6-6h192.28" stroke="#3a414a" stroke-width="6" fill="none"/><path d="M2898.63 1039h-6v-3.07h6z" stroke="#3a414a" stroke-width=".05" fill="#3a414a"/><path d="M3110.33 790l-14.27 4.64v-9.28z" stroke="#3a414a" stroke-width="6" fill="#3a414a"/><path d="M3120 664.33a6 6 0 0 1 6-6h228a6 6 0 0 1 6 6v51.34a6 6 0 0 1-6 6h-228a6 6 0 0 1-6-6z" stroke="#000" stroke-opacity="0" stroke-width="2" fill="#fff" fill-opacity="0"/><use xlink:href="#r" transform="matrix(1,0,0,1,3125,663.3333333333334) translate(88.81790123456791 33.597222222222214)"/><path d="M3120 766a6 6 0 0 1 6-6h228a6 6 0 0 1 6 6v48a6 6 0 0 1-6 6h-228a6 6 0 0 1-6-6z" stroke="#000" stroke-opacity="0" stroke-width="2" fill="#fff" fill-opacity="0"/><use xlink:href="#s" transform="matrix(1,0,0,1,3125,765) translate(88.81790123456791 33.347222222222214)"/><path d="M3220 246a6 6 0 0 1 6-6h248a6 6 0 0 1 6 6v148a6 6 0 0 1-6 6h-248a6 6 0 0 1-6-6z" fill="none"/><path d="M3220 400c5.52 0 10-4.48 10-10v-60c0-5.52 4.48-10 10-10-5.52 0-10-4.48-10-10v-60c0-5.52-4.48-10-10-10" stroke="#3a414a" stroke-width="2" fill="none"/><use xlink:href="#t" transform="matrix(1,0,0,1,3255,245) translate(0 59.888888888888886)"/><use xlink:href="#u" transform="matrix(1,0,0,1,3255,245) translate(31.481481481481474 59.888888888888886)"/><use xlink:href="#v" transform="matrix(1,0,0,1,3255,245) translate(0 105.22222222222221)"/><path d="M1723.96 170H1874a6 6 0 0 0 6-6V-23.7a6 6 0 0 1 6-6h126.05" stroke="#1071e5" stroke-width="6" fill="none"/><path d="M1724.04 173h-3.08v-6h3.08z" stroke="#1071e5" stroke-width=".05" fill="#1071e5"/><path d="M2029.3-29.7l-14.25 4.64v-9.27z" stroke="#1071e5" stroke-width="6" fill="#1071e5"/><path d="M1880 148.5V234a6 6 0 0 0 6 6h126.06M1880 148.6v-3.1" stroke="#1071e5" stroke-width="6" fill="none"/><path d="M2029.33 240l-14.27 4.64v-9.28z" stroke="#1071e5" stroke-width="6" fill="#1071e5"/><path d="M1880 110.7V454a6 6 0 0 0 6 6h73.45a.06.06 0 0 0 .06-.06.06.06 0 0 1 .07-.06h52.48M1880 110.77v-3.08" stroke="#1071e5" stroke-width="6" fill="none"/><path d="M2029.32 459.88l-14.27 4.63v-9.26z" stroke="#1071e5" stroke-width="6" fill="#1071e5"/><path d="M1880 443.68V674a6 6 0 0 0 6 6h73.38a.12.12 0 0 0 .12-.12.12.12 0 0 1 .13-.13h52.4M1880 443.75v-3.07" stroke="#1071e5" stroke-width="6" fill="none"/><path d="M2029.3 679.75l-14.26 4.64v-9.28z" stroke="#1071e5" stroke-width="6" fill="#1071e5"/><path d="M1210.48 742.25v20.82a6 6 0 0 0 6 6h795.6M1210.48 742.33v-3.08" stroke="#e81313" stroke-width="6" fill="none"/><path d="M2029.35 769.07l-14.26 4.64v-9.26z" stroke="#e81313" stroke-width="6" fill="#e81313"/><path d="M1722.13 766.07v-12.3a6 6 0 0 1 6-6h19.68a6 6 0 0 0 6-6V482.4a6 6 0 0 1 6-6H1872c0-4.4 3.57-8 8-8 4.4 0 8 3.6 8 8h105.05a6 6 0 0 1 6 6v28.24a6 6 0 0 0 6 6h7.03M1722.13 766v3.07" stroke="#e81313" stroke-width="6" fill="none"/><path d="M2029.35 516.64l-14.27 4.63V512z" stroke="#e81313" stroke-width="6" fill="#e81313"/><path d="M1753.8 544.3V302.45a6 6 0 0 1 6-6H1872c0-4.42 3.57-8 8-8 4.4 0 8 3.58 8 8h8.26a.18.18 0 0 1 .18.17.18.18 0 0 0 .18.2h115.47M1753.8 544.23v3.08" stroke="#e81313" stroke-width="6" fill="none"/><path d="M2029.36 296.8l-14.27 4.62v-9.27z" stroke="#e81313" stroke-width="6" fill="#e81313"/><path d="M1753.8 316.47V178c-4.4 0-8-3.58-8-8s3.6-8 8-8V51.55a6 6 0 0 1 6-6H1872c0-4.42 3.57-8 8-8 4.4 0 8 3.58 8 8h8.3a.14.14 0 0 1 .14.14.14.14 0 0 0 .14.13h115.5M1753.8 316.4v3.07" stroke="#e81313" stroke-width="6" fill="none"/><path d="M2029.35 45.83l-14.26 4.64V41.2z" stroke="#e81313" stroke-width="6" fill="#e81313"/><path d="M579.7 1117V804.5a6 6 0 0 1 6-6h86.4M579.7 1116.92v3.08" stroke="#008573" stroke-width="6" fill="none"/><path d="M689.36 798.5l-14.27 4.63v-9.27z" stroke="#008573" stroke-width="6" fill="#008573"/><path d="M579.75 849.54v-102.3c-4.4 0-8-3.57-8-8 0-4.4 3.6-8 8-8V278.42a6 6 0 0 1 6-6h53.6a.06.06 0 0 1 .06.07.06.06 0 0 0 .07.06h32.62M582.78 852.5h-3.08" stroke="#008573" stroke-width="6" fill="none"/><path d="M689.35 272.53l-14.26 4.64v-9.27z" stroke="#008573" stroke-width="6" fill="#008573"/><path d="M579.75 307.54V228c-4.4 0-8-3.58-8-8s3.6-8 8-8V69.22a6 6 0 0 1 6-6h53.6a.05.05 0 0 1 .06.05.05.05 0 0 0 .06.05h32.62M579.75 307.46v3.08" stroke="#008573" stroke-width="6" fill="none"/><path d="M689.35 63.32l-14.27 4.64v-9.28z" stroke="#008573" stroke-width="6" fill="#008573"/><path d="M1633.82 1117V777.06c-4.4-.18-7.84-3.9-7.66-8.32.18-4.3 3.7-7.67 8-7.67V447.94M1633.82 1116.92v3.08" stroke="#008a0e" stroke-width="6" fill="none"/><path d="M1634.16 430.67l4.63 14.27h-9.28z" stroke="#008a0e" stroke-width="6" fill="#008a0e"/><path d="M3040 306a6 6 0 0 1 6-6h112a6 6 0 0 0 6-6v-8a2.3 2.3 0 0 1 4-1.54l28 31.08a6.67 6.67 0 0 1 0 8.92l-28 31.08a2.3 2.3 0 0 1-4-1.54v-8a6 6 0 0 0-6-6h-112a6 6 0 0 1-6-6z" stroke="#3a414a" stroke-width="6" fill="#fff"/><defs><path fill="#3a414a" d="M185-189c-5-48-123-54-124 2 14 75 158 14 163 119 3 78-121 87-175 55-17-10-28-26-33-46l33-7c5 56 141 63 141-1 0-78-155-14-162-118-5-82 145-84 179-34 5 7 8 16 11 25" id="w"/><path fill="#3a414a" d="M59-47c-2 24 18 29 38 22v24C64 9 27 4 27-40v-127H5v-23h24l9-43h21v43h35v23H59v120" id="x"/><path fill="#3a414a" d="M141-36C126-15 110 5 73 4 37 3 15-17 15-53c-1-64 63-63 125-63 3-35-9-54-41-54-24 1-41 7-42 31l-33-3c5-37 33-52 76-52 45 0 72 20 72 64v82c-1 20 7 32 28 27v20c-31 9-61-2-59-35zM48-53c0 20 12 33 32 33 41-3 63-29 60-74-43 2-92-5-92 41" id="y"/><path fill="#3a414a" d="M114-163C36-179 61-72 57 0H25l-1-190h30c1 12-1 29 2 39 6-27 23-49 58-41v29" id="z"/><g id="a"><use transform="matrix(0.14814814814814797,0,0,0.14814814814814797,0,0)" xlink:href="#w"/><use transform="matrix(0.14814814814814797,0,0,0.14814814814814797,35.555555555555515,0)" xlink:href="#x"/><use transform="matrix(0.14814814814814797,0,0,0.14814814814814797,50.37037037037031,0)" xlink:href="#y"/><use transform="matrix(0.14814814814814797,0,0,0.14814814814814797,79.9999999999999,0)" xlink:href="#z"/><use transform="matrix(0.14814814814814797,0,0,0.14814814814814797,97.62962962962949,0)" xlink:href="#x"/></g><path fill="#3a414a" d="M30-248c118-7 216 8 213 122C240-48 200 0 122 0H30v-248zM63-27c89 8 146-16 146-99s-60-101-146-95v194" id="A"/><path fill="#3a414a" d="M100-194c63 0 86 42 84 106H49c0 40 14 67 53 68 26 1 43-12 49-29l28 8c-11 28-37 45-77 45C44 4 14-33 15-96c1-61 26-98 85-98zm52 81c6-60-76-77-97-28-3 7-6 17-6 28h103" id="B"/><path fill="#3a414a" d="M115-194c53 0 69 39 70 98 0 66-23 100-70 100C84 3 66-7 56-30L54 0H23l1-261h32v101c10-23 28-34 59-34zm-8 174c40 0 45-34 45-75 0-40-5-75-45-74-42 0-51 32-51 76 0 43 10 73 51 73" id="C"/><path fill="#3a414a" d="M100-194c62-1 85 37 85 99 1 63-27 99-86 99S16-35 15-95c0-66 28-99 85-99zM99-20c44 1 53-31 53-75 0-43-8-75-51-75s-53 32-53 75 10 74 51 75" id="D"/><path fill="#3a414a" d="M84 4C-5 8 30-112 23-190h32v120c0 31 7 50 39 49 72-2 45-101 50-169h31l1 190h-30c-1-10 1-25-2-33-11 22-28 36-60 37" id="E"/><path fill="#3a414a" d="M117-194c89-4 53 116 60 194h-32v-121c0-31-8-49-39-48C34-167 62-67 57 0H25l-1-190h30c1 10-1 24 2 32 11-22 29-35 61-36" id="F"/><path fill="#3a414a" d="M96-169c-40 0-48 33-48 73s9 75 48 75c24 0 41-14 43-38l32 2c-6 37-31 61-74 61-59 0-76-41-82-99-10-93 101-131 147-64 4 7 5 14 7 22l-32 3c-4-21-16-35-41-35" id="G"/><g id="b"><use transform="matrix(0.0864197530864197,0,0,0.0864197530864197,0,0)" xlink:href="#A"/><use transform="matrix(0.0864197530864197,0,0,0.0864197530864197,22.382716049382704,0)" xlink:href="#B"/><use transform="matrix(0.0864197530864197,0,0,0.0864197530864197,39.66666666666664,0)" xlink:href="#C"/><use transform="matrix(0.0864197530864197,0,0,0.0864197530864197,56.950617283950585,0)" xlink:href="#D"/><use transform="matrix(0.0864197530864197,0,0,0.0864197530864197,74.23456790123453,0)" xlink:href="#E"/><use transform="matrix(0.0864197530864197,0,0,0.0864197530864197,91.51851851851848,0)" xlink:href="#F"/><use transform="matrix(0.0864197530864197,0,0,0.0864197530864197,108.80246913580243,0)" xlink:href="#G"/><use transform="matrix(0.0864197530864197,0,0,0.0864197530864197,124.35802469135798,0)" xlink:href="#B"/><use transform="matrix(0.0864197530864197,0,0,0.0864197530864197,141.64197530864192,0)" xlink:href="#z"/></g><path fill="#3a414a" d="M30-248c87 1 191-15 191 75 0 78-77 80-158 76V0H30v-248zm33 125c57 0 124 11 124-50 0-59-68-47-124-48v98" id="H"/><path fill="#3a414a" d="M135-143c-3-34-86-38-87 0 15 53 115 12 119 90S17 21 10-45l28-5c4 36 97 45 98 0-10-56-113-15-118-90-4-57 82-63 122-42 12 7 21 19 24 35" id="I"/><g id="c"><use transform="matrix(0.14814814814814797,0,0,0.14814814814814797,0,0)" xlink:href="#H"/><use transform="matrix(0.14814814814814797,0,0,0.14814814814814797,35.555555555555515,0)" xlink:href="#y"/><use transform="matrix(0.14814814814814797,0,0,0.14814814814814797,65.1851851851851,0)" xlink:href="#E"/><use transform="matrix(0.14814814814814797,0,0,0.14814814814814797,94.8148148148147,0)" xlink:href="#I"/><use transform="matrix(0.14814814814814797,0,0,0.14814814814814797,121.48148148148132,0)" xlink:href="#B"/></g><path fill="#3a414a" d="M233-177c-1 41-23 64-60 70L243 0h-38l-65-103H63V0H30v-248c88 3 205-21 203 71zM63-129c60-2 137 13 137-47 0-61-80-42-137-45v92" id="J"/><g id="d"><use transform="matrix(0.14814814814814797,0,0,0.14814814814814797,0,0)" xlink:href="#J"/><use transform="matrix(0.14814814814814797,0,0,0.14814814814814797,38.370370370370324,0)" xlink:href="#B"/><use transform="matrix(0.14814814814814797,0,0,0.14814814814814797,67.99999999999991,0)" xlink:href="#I"/><use transform="matrix(0.14814814814814797,0,0,0.14814814814814797,94.66666666666654,0)" xlink:href="#B"/><use transform="matrix(0.14814814814814797,0,0,0.14814814814814797,124.29629629629613,0)" xlink:href="#x"/></g><path fill="#3a414a" d="M85-194c31 0 48 13 60 33l-1-100h32l1 261h-30c-2-10 0-23-3-31C134-8 116 4 85 4 32 4 16-35 15-94c0-66 23-100 70-100zm9 24c-40 0-46 34-46 75 0 40 6 74 45 74 42 0 51-32 51-76 0-42-9-74-50-73" id="K"/><g id="e"><use transform="matrix(0.0864197530864197,0,0,0.0864197530864197,0,0)" xlink:href="#H"/><use transform="matrix(0.0864197530864197,0,0,0.0864197530864197,20.74074074074073,0)" xlink:href="#y"/><use transform="matrix(0.0864197530864197,0,0,0.0864197530864197,38.02469135802467,0)" xlink:href="#E"/><use transform="matrix(0.0864197530864197,0,0,0.0864197530864197,55.30864197530861,0)" xlink:href="#I"/><use transform="matrix(0.0864197530864197,0,0,0.0864197530864197,70.86419753086416,0)" xlink:href="#B"/><use transform="matrix(0.0864197530864197,0,0,0.0864197530864197,88.1481481481481,0)" xlink:href="#K"/></g><path fill="#3a414a" d="M177-190C167-65 218 103 67 71c-23-6-38-20-44-43l32-5c15 47 100 32 89-28v-30C133-14 115 1 83 1 29 1 15-40 15-95c0-56 16-97 71-98 29-1 48 16 59 35 1-10 0-23 2-32h30zM94-22c36 0 50-32 50-73 0-42-14-75-50-75-39 0-46 34-46 75s6 73 46 73" id="L"/><path fill="#3a414a" d="M24-231v-30h32v30H24zM24 0v-190h32V0H24" id="M"/><g id="f"><use transform="matrix(0.0864197530864197,0,0,0.0864197530864197,0,0)" xlink:href="#J"/><use transform="matrix(0.0864197530864197,0,0,0.0864197530864197,22.382716049382704,0)" xlink:href="#B"/><use transform="matrix(0.0864197530864197,0,0,0.0864197530864197,39.66666666666664,0)" xlink:href="#L"/><use transform="matrix(0.0864197530864197,0,0,0.0864197530864197,56.950617283950585,0)" xlink:href="#M"/><use transform="matrix(0.0864197530864197,0,0,0.0864197530864197,63.77777777777774,0)" xlink:href="#I"/><use transform="matrix(0.0864197530864197,0,0,0.0864197530864197,79.33333333333329,0)" xlink:href="#x"/><use transform="matrix(0.0864197530864197,0,0,0.0864197530864197,87.97530864197526,0)" xlink:href="#B"/><use transform="matrix(0.0864197530864197,0,0,0.0864197530864197,105.25925925925921,0)" xlink:href="#z"/></g><path fill="#3a414a" d="M212-179c-10-28-35-45-73-45-59 0-87 40-87 99 0 60 29 101 89 101 43 0 62-24 78-52l27 14C228-24 195 4 139 4 59 4 22-46 18-125c-6-104 99-153 187-111 19 9 31 26 39 46" id="N"/><path fill="#3a414a" d="M24 0v-261h32V0H24" id="O"/><path fill="#3a414a" d="M143 0L79-87 56-68V0H24v-261h32v163l83-92h37l-77 82L181 0h-38" id="P"/><g id="g"><use transform="matrix(0.14814814814814797,0,0,0.14814814814814797,0,0)" xlink:href="#N"/><use transform="matrix(0.14814814814814797,0,0,0.14814814814814797,38.370370370370324,0)" xlink:href="#O"/><use transform="matrix(0.14814814814814797,0,0,0.14814814814814797,50.07407407407401,0)" xlink:href="#D"/><use transform="matrix(0.14814814814814797,0,0,0.14814814814814797,79.70370370370361,0)" xlink:href="#G"/><use transform="matrix(0.14814814814814797,0,0,0.14814814814814797,106.37037037037024,0)" xlink:href="#P"/></g><path fill="#3a414a" d="M240 0l2-218c-23 76-54 145-80 218h-23L58-218 59 0H30v-248h44l77 211c21-75 51-140 76-211h43V0h-30" id="Q"/><g id="h"><use transform="matrix(0.0864197530864197,0,0,0.0864197530864197,0,0)" xlink:href="#Q"/><use transform="matrix(0.0864197530864197,0,0,0.0864197530864197,25.839506172839492,0)" xlink:href="#D"/><use transform="matrix(0.0864197530864197,0,0,0.0864197530864197,43.123456790123434,0)" xlink:href="#K"/></g><path fill="#3a414a" d="M27 0v-27h64v-190l-56 39v-29l58-41h29v221h61V0H27" id="R"/><path fill="#3a414a" d="M64 0c3-98 48-159 88-221H18v-27h164v26C143-157 98-101 97 0H64" id="S"/><g id="i"><use transform="matrix(0.0864197530864197,0,0,0.0864197530864197,0,0)" xlink:href="#R"/><use transform="matrix(0.0864197530864197,0,0,0.0864197530864197,17.283950617283942,0)" xlink:href="#B"/><use transform="matrix(0.0864197530864197,0,0,0.0864197530864197,34.567901234567884,0)" xlink:href="#S"/></g><path fill="#3a414a" d="M101-251c68 0 85 55 85 127S166 4 100 4C33 4 14-52 14-124c0-73 17-127 87-127zm-1 229c47 0 54-49 54-102s-4-102-53-102c-51 0-55 48-55 102 0 53 5 102 54 102" id="T"/><g id="j"><use transform="matrix(0.0864197530864197,0,0,0.0864197530864197,0,0)" xlink:href="#R"/><use transform="matrix(0.0864197530864197,0,0,0.0864197530864197,17.283950617283942,0)" xlink:href="#T"/></g><g id="k"><use transform="matrix(0.0864197530864197,0,0,0.0864197530864197,0,0)" xlink:href="#Q"/><use transform="matrix(0.0864197530864197,0,0,0.0864197530864197,25.839506172839492,0)" xlink:href="#D"/><use transform="matrix(0.0864197530864197,0,0,0.0864197530864197,43.123456790123434,0)" xlink:href="#K"/></g><path fill="#3a414a" d="M110-160c48 1 74 30 74 79 0 53-28 85-80 85-65 0-83-55-86-122-5-90 50-162 133-122 14 7 22 21 27 39l-31 6c-5-40-67-38-82-6-9 19-15 44-15 74 11-20 30-34 60-33zm-7 138c34 0 49-23 49-58s-16-56-50-56c-29 0-50 16-49 49 1 36 15 65 50 65" id="U"/><use transform="matrix(0.0864197530864197,0,0,0.0864197530864197,0,0)" xlink:href="#U" id="l"/><path fill="#3a414a" d="M127-220V0H93v-220H8v-28h204v28h-85" id="V"/><path fill="#3a414a" d="M210-169c-67 3-38 105-44 169h-31v-121c0-29-5-50-35-48C34-165 62-65 56 0H25l-1-190h30c1 10-1 24 2 32 10-44 99-50 107 0 11-21 27-35 58-36 85-2 47 119 55 194h-31v-121c0-29-5-49-35-48" id="W"/><g id="m"><use transform="matrix(0.0864197530864197,0,0,0.0864197530864197,0,0)" xlink:href="#V"/><use transform="matrix(0.0864197530864197,0,0,0.0864197530864197,17.80246913580246,0)" xlink:href="#M"/><use transform="matrix(0.0864197530864197,0,0,0.0864197530864197,24.629629629629623,0)" xlink:href="#W"/><use transform="matrix(0.0864197530864197,0,0,0.0864197530864197,50.46913580246911,0)" xlink:href="#M"/><use transform="matrix(0.0864197530864197,0,0,0.0864197530864197,57.29629629629626,0)" xlink:href="#F"/><use transform="matrix(0.0864197530864197,0,0,0.0864197530864197,74.58024691358021,0)" xlink:href="#L"/></g><g id="n"><use transform="matrix(0.0864197530864197,0,0,0.0864197530864197,0,0)" xlink:href="#N"/><use transform="matrix(0.0864197530864197,0,0,0.0864197530864197,22.382716049382704,0)" xlink:href="#M"/><use transform="matrix(0.0864197530864197,0,0,0.0864197530864197,29.209876543209862,0)" xlink:href="#z"/><use transform="matrix(0.0864197530864197,0,0,0.0864197530864197,39.49382716049381,0)" xlink:href="#G"/><use transform="matrix(0.0864197530864197,0,0,0.0864197530864197,55.04938271604935,0)" xlink:href="#E"/><use transform="matrix(0.0864197530864197,0,0,0.0864197530864197,72.33333333333329,0)" xlink:href="#M"/><use transform="matrix(0.0864197530864197,0,0,0.0864197530864197,79.16049382716044,0)" xlink:href="#x"/></g><use transform="matrix(0.0864197530864197,0,0,0.0864197530864197,0,0)" xlink:href="#S" id="o"/><g id="p"><use transform="matrix(0.0864197530864197,0,0,0.0864197530864197,0,0)" xlink:href="#w"/><use transform="matrix(0.0864197530864197,0,0,0.0864197530864197,20.74074074074073,0)" xlink:href="#B"/><use transform="matrix(0.0864197530864197,0,0,0.0864197530864197,38.02469135802467,0)" xlink:href="#L"/><use transform="matrix(0.0864197530864197,0,0,0.0864197530864197,55.30864197530861,0)" xlink:href="#W"/><use transform="matrix(0.0864197530864197,0,0,0.0864197530864197,81.1481481481481,0)" xlink:href="#B"/><use transform="matrix(0.0864197530864197,0,0,0.0864197530864197,98.43209876543204,0)" xlink:href="#F"/><use transform="matrix(0.0864197530864197,0,0,0.0864197530864197,115.716049382716,0)" xlink:href="#x"/></g><g id="q"><use transform="matrix(0.0864197530864197,0,0,0.0864197530864197,0,0)" xlink:href="#A"/><use transform="matrix(0.0864197530864197,0,0,0.0864197530864197,22.382716049382704,0)" xlink:href="#B"/><use transform="matrix(0.0864197530864197,0,0,0.0864197530864197,39.66666666666664,0)" xlink:href="#G"/><use transform="matrix(0.0864197530864197,0,0,0.0864197530864197,55.222222222222186,0)" xlink:href="#D"/><use transform="matrix(0.0864197530864197,0,0,0.0864197530864197,72.50617283950612,0)" xlink:href="#K"/><use transform="matrix(0.0864197530864197,0,0,0.0864197530864197,89.79012345679007,0)" xlink:href="#B"/><use transform="matrix(0.0864197530864197,0,0,0.0864197530864197,107.07407407407402,0)" xlink:href="#z"/></g><g id="r"><use transform="matrix(0.10493827160493824,0,0,0.10493827160493824,0,0)" xlink:href="#A"/><use transform="matrix(0.10493827160493824,0,0,0.10493827160493824,27.179012345679002,0)" xlink:href="#H"/></g><path fill="#3a414a" d="M205 0l-28-72H64L36 0H1l101-248h38L239 0h-34zm-38-99l-47-123c-12 45-31 82-46 123h93" id="X"/><path fill="#3a414a" d="M190 0L58-211 59 0H30v-248h39L202-35l-2-213h31V0h-41" id="Y"/><g id="s"><use transform="matrix(0.10493827160493824,0,0,0.10493827160493824,0,0)" xlink:href="#X"/><use transform="matrix(0.10493827160493824,0,0,0.10493827160493824,25.185185185185176,0)" xlink:href="#Y"/></g><use transform="matrix(0.10493827160493824,0,0,0.10493827160493824,0,0)" xlink:href="#S" id="t"/><g id="u"><use transform="matrix(0.10493827160493824,0,0,0.10493827160493824,0,0)" xlink:href="#w"/><use transform="matrix(0.10493827160493824,0,0,0.10493827160493824,25.185185185185176,0)" xlink:href="#B"/><use transform="matrix(0.10493827160493824,0,0,0.10493827160493824,46.17283950617282,0)" xlink:href="#L"/><use transform="matrix(0.10493827160493824,0,0,0.10493827160493824,67.16049382716047,0)" xlink:href="#W"/><use transform="matrix(0.10493827160493824,0,0,0.10493827160493824,98.537037037037,0)" xlink:href="#B"/><use transform="matrix(0.10493827160493824,0,0,0.10493827160493824,119.52469135802463,0)" xlink:href="#F"/><use transform="matrix(0.10493827160493824,0,0,0.10493827160493824,140.5123456790123,0)" xlink:href="#x"/></g><path fill="#3a414a" d="M115-194c55 1 70 41 70 98S169 2 115 4C84 4 66-9 55-30l1 105H24l-1-265h31l2 30c10-21 28-34 59-34zm-8 174c40 0 45-34 45-75s-6-73-45-74c-42 0-51 32-51 76 0 43 10 73 51 73" id="Z"/><path fill="#3a414a" d="M179-190L93 31C79 59 56 82 12 73V49c39 6 53-20 64-50L1-190h34L92-34l54-156h33" id="aa"/><g id="v"><use transform="matrix(0.10493827160493824,0,0,0.10493827160493824,0,0)" xlink:href="#A"/><use transform="matrix(0.10493827160493824,0,0,0.10493827160493824,27.179012345679002,0)" xlink:href="#M"/><use transform="matrix(0.10493827160493824,0,0,0.10493827160493824,35.469135802469125,0)" xlink:href="#I"/><use transform="matrix(0.10493827160493824,0,0,0.10493827160493824,54.358024691358004,0)" xlink:href="#Z"/><use transform="matrix(0.10493827160493824,0,0,0.10493827160493824,75.34567901234566,0)" xlink:href="#O"/><use transform="matrix(0.10493827160493824,0,0,0.10493827160493824,83.63580246913578,0)" xlink:href="#y"/><use transform="matrix(0.10493827160493824,0,0,0.10493827160493824,104.62345679012343,0)" xlink:href="#aa"/></g></defs></g></svg>